<?xml version="1.0" encoding="UTF-8"?>
<svg id="Vrstva_1" xmlns="http://www.w3.org/2000/svg" version="1.1" viewBox="0 0 148.63 126.55">
  <!-- Generator: Adobe Illustrator 29.5.1, SVG Export Plug-In . SVG Version: 2.1.0 Build 141)  -->
  <defs>
    <style>
      .st0, .st1 {
        fill: none;
      }

      .st0, .st1, .st2, .st3 {
        stroke-miterlimit: 10;
        stroke-width: .25px;
      }

      .st0, .st2 {
        stroke: #1d1d1b;
      }

      .st4, .st5, .st6, .st7, .st8, .st9, .st10, .st3 {
        fill: #1d1d1b;
      }

      .st5 {
        font-family: FuturaPT-BoldObl, 'Futura PT';
        font-size: 21.12px;
      }

      .st5, .st6 {
        font-style: oblique;
      }

      .st5, .st7, .st10, .st11 {
        font-weight: 700;
      }

      .st12, .st2, .st11 {
        fill: #fff;
      }

      .st1, .st3 {
        stroke: #fff;
      }

      .st6 {
        font-family: Helvetica-LightOblique, Helvetica;
        font-size: 25.53px;
        font-weight: 300;
      }

      .st7 {
        font-size: 29.58px;
      }

      .st7, .st10, .st11 {
        font-family: Helvetica-Bold, Helvetica;
      }

      .st8 {
        font-size: 12px;
      }

      .st8, .st9 {
        font-family: Helvetica, Helvetica;
      }

      .st9 {
        font-size: 16.44px;
      }

      .st10, .st11 {
        font-size: 7px;
      }
    </style>
  </defs>
  <ellipse class="st3" cx="-961.73" cy="-3.31" rx="59.87" ry="19.9"/>
  <path class="st3" d="M-902.2-3.49c0,28.42-26.65,51.47-59.54,51.47s-59.53-23.04-59.53-51.47h119.06Z"/>
  <text class="st5" transform="translate(-1250.32 -397.14) scale(1.46 1)"><tspan x="0" y="0">SOFT.HORIZON</tspan></text>
  <text class="st7" transform="translate(-1247.72 -263.82)"><tspan x="0" y="0">softhorizon</tspan></text>
  <text class="st6" transform="translate(-1249.82 -327.99)"><tspan x="0" y="0">SOFTHORIZON</tspan></text>
  <text class="st9" transform="translate(-1247.72 -209.69)"><tspan x="0" y="0">soft.horizon</tspan></text>
  <text class="st8" transform="translate(-1235.99 -106.29)"><tspan x="0" y="0">soft</tspan></text>
  <text class="st8" transform="translate(-1154.23 -76.35)"><tspan x="0" y="0">horizon</tspan></text>
  <text class="st8" transform="translate(-1246.77 -182.94)"><tspan x="0" y="0">soft</tspan></text>
  <text class="st8" transform="translate(-1237.5 -173.18)"><tspan x="0" y="0">horizon</tspan></text>
  <rect class="st0" x="-1249.82" y="-132.81" width="142.74" height="66.56"/>
  <rect class="st4" x="-1249.82" y="-66.26" width="142.74" height="23.45"/>
  <text class="st8" transform="translate(-872.54 -341.36)"><tspan x="0" y="0">soft</tspan></text>
  <text class="st8" transform="translate(-786.11 -302.69)"><tspan x="0" y="0">horizon</tspan></text>
  <rect class="st0" x="-881.7" y="-359.16" width="142.74" height="66.56"/>
  <rect class="st4" x="-881.7" y="-292.6" width="142.74" height="23.45"/>
  <text class="st10" transform="translate(-881.26 -172.14)"><tspan x="0" y="0">Place where I sell everything that </tspan><tspan x="0" y="8.4">represents my being.</tspan></text>
  <rect class="st4" x="-804.87" y="-120.26" width="65.91" height="15.72"/>
  <text class="st11" transform="translate(-800.5 -111.08)"><tspan x="0" y="0">keep me in touch</tspan></text>
  <rect class="st0" x="-911.91" y="-418.28" width="203.48" height="341.94" rx="-252.47" ry="-252.47"/>
  <rect class="st2" x="-881.1" y="-145.2" width="142.15" height="16.64"/>
  <text class="st10" transform="translate(-880.81 -401.31)"><tspan x="0" y="0">shop</tspan></text>
  <text class="st10" transform="translate(-764.68 -401.17)"><tspan x="0" y="0">home</tspan></text>
  <text class="st10" transform="translate(-650.51 -172.14)"><tspan x="0" y="0">Place where I sell everything that </tspan><tspan x="0" y="8.4">represents my being.</tspan></text>
  <rect class="st4" x="-574.11" y="-120.26" width="65.91" height="15.72"/>
  <text class="st11" transform="translate(-569.75 -111.08)"><tspan x="0" y="0">keep me in touch</tspan></text>
  <rect class="st0" x="-681.15" y="-418.28" width="203.48" height="341.94" rx="-137.1" ry="-137.1"/>
  <rect class="st2" x="-650.35" y="-145.2" width="142.15" height="16.64"/>
  <text class="st10" transform="translate(-650.06 -401.31)"><tspan x="0" y="0">shop</tspan></text>
  <text class="st10" transform="translate(-533.93 -401.17)"><tspan x="0" y="0">home</tspan></text>
  <rect class="st0" x="-653.46" y="-374.47" width="148.38" height="126.3"/>
  <text class="st10" transform="translate(-650.51 -228.05)"><tspan x="0" y="0">tea, crafts, ceramic....</tspan><tspan x="0" y="8.4">everything is already in a process.</tspan></text>
  <g>
    <path class="st2" d="M-.48-297.22c0,51.26-48.07,92.82-107.37,92.82s-107.36-41.56-107.36-92.82H-.48Z"/>
    <rect class="st12" x="-215.21" y="-299.97" width="214.73" height="6.88"/>
    <g>
      <path class="st2" d="M-180.85-311.89c-.96,1.81,8.74,6.61,18.88,17.74,13.88,15.23,16.36,28.89,17.78,28.38,1.99-.71.21-28.42-18.33-40.8-7.74-5.17-17.44-7.01-18.33-5.32Z"/>
      <path class="st2" d="M-151.36-290.99c.76,1.01-4.84,4.83-10.25,12.93-8.84,13.23-8.46,24.85-9.79,24.68-1.61-.2-4.63-17.44,4.72-28.8,5.63-6.84,14.45-9.97,15.33-8.81Z"/>
      <path class="st2" d="M-19.81-307.82c.76,1.01-4.84,4.83-10.25,12.93-8.84,13.23-8.46,24.85-9.79,24.68-1.61-.2-4.63-17.44,4.72-28.8,5.63-6.84,14.45-9.97,15.33-8.81Z"/>
      <path class="st2" d="M-121.14-275.59c1.26.13.25,6.84,2.51,16.31,3.69,15.48,12.46,23.1,11.43,23.96-1.24,1.04-15.93-8.47-17.9-23.04-1.19-8.78,2.52-17.37,3.96-17.23Z"/>
      <path class="st2" d="M-97.47-275.27c.54,1.14-5.72,3.76-12.65,10.59-11.33,11.17-13.31,22.62-14.58,22.19-1.54-.52-1-18.02,10.44-27.25,6.9-5.56,16.17-6.84,16.79-5.53Z"/>
      <path class="st2" d="M-156.32-280.97c1.18-.91,7.39,4.05,19.22,8.17,19.33,6.73,34.65,4.6,34.7,5.94.06,1.62-22.18,7.21-39.12-.3-10.21-4.53-16.15-12.77-14.79-13.81Z"/>
      <path class="st2" d="M-56.45-321.19c1.1.62-2.53,6.36-4.28,15.93-2.87,15.65,2.08,26.17.79,26.54-1.56.45-11.16-14.18-7.08-28.31,2.46-8.51,9.31-14.88,10.58-14.17Z"/>
      <path class="st2" d="M-107.91-292.08c.45-1.42,8.38-.92,20.43-4.33,19.7-5.58,31.02-16.12,31.83-15.05.98,1.29-14.02,18.63-32.21,22.2-10.96,2.15-20.56-1.19-20.04-2.82Z"/>
      <path class="st2" d="M-136.26-299.31c1.65.28-.82,6.81.58,16.49,2.28,15.82,12.67,24.49,11.15,25.22-1.83.88-19.76-10.41-19.91-25.12-.09-8.86,6.29-16.92,8.19-16.59Z"/>
    </g>
    <ellipse class="st0" cx="-107.84" cy="-296.89" rx="107.97" ry="35.89"/>
  </g>
  <g>
    <path class="st2" d="M-519.74-321.14c0,28.42-26.65,51.47-59.54,51.47s-59.53-23.04-59.53-51.47h119.06Z"/>
    <rect class="st12" x="-638.81" y="-322.67" width="119.06" height="3.82"/>
    <g>
      <path class="st2" d="M-619.75-329.28c-.53,1,4.85,3.66,10.47,9.84,7.7,8.45,9.07,16.02,9.86,15.74,1.1-.39.12-15.76-10.16-22.62-4.29-2.87-9.67-3.89-10.16-2.95Z"/>
      <path class="st2" d="M-603.4-317.69c.42.56-2.68,2.68-5.68,7.17-4.9,7.34-4.69,13.78-5.43,13.69-.89-.11-2.57-9.67,2.61-15.97,3.12-3.79,8.01-5.53,8.5-4.89Z"/>
      <path class="st2" d="M-530.46-327.02c.42.56-2.68,2.68-5.68,7.17-4.9,7.34-4.69,13.78-5.43,13.69-.89-.11-2.57-9.67,2.61-15.97,3.12-3.79,8.01-5.53,8.5-4.89Z"/>
      <path class="st2" d="M-586.65-309.15c.7.07.14,3.79,1.39,9.04,2.04,8.58,6.91,12.81,6.34,13.29-.69.58-8.83-4.7-9.93-12.78-.66-4.87,1.4-9.63,2.2-9.55Z"/>
      <path class="st2" d="M-573.52-308.98c.3.63-3.17,2.08-7.01,5.87-6.28,6.19-7.38,12.55-8.08,12.3-.85-.29-.56-9.99,5.79-15.11,3.82-3.08,8.96-3.79,9.31-3.07Z"/>
      <path class="st2" d="M-606.15-312.14c.65-.5,4.1,2.25,10.66,4.53,10.72,3.73,19.21,2.55,19.24,3.3.03.9-12.3,4-21.69-.17-5.66-2.51-8.95-7.08-8.2-7.66Z"/>
      <path class="st2" d="M-550.77-334.43c.61.35-1.4,3.52-2.38,8.83-1.59,8.68,1.16,14.51.44,14.72-.86.25-6.19-7.86-3.93-15.69,1.36-4.72,5.16-8.25,5.86-7.86Z"/>
      <path class="st2" d="M-579.31-318.3c.25-.79,4.65-.51,11.33-2.4,10.92-3.09,17.2-8.94,17.65-8.34.54.72-7.78,10.33-17.86,12.31-6.08,1.19-11.4-.66-11.11-1.57Z"/>
      <path class="st2" d="M-595.03-322.31c.92.16-.46,3.78.32,9.14,1.27,8.77,7.02,13.58,6.18,13.98-1.01.49-10.96-5.77-11.04-13.93-.05-4.91,3.49-9.38,4.54-9.2Z"/>
    </g>
    <ellipse class="st0" cx="-579.27" cy="-320.97" rx="59.87" ry="19.9"/>
  </g>
  <rect class="st0" x="-1035.92" y="-56.82" width="148.38" height="126.3"/>
  <rect class="st4" x="-1021.27" y="-5.02" width="119.06" height="3.82"/>
  <g>
    <path class="st3" d="M-1002.21-11.63c-.53,1,4.85,3.66,10.47,9.84,7.7,8.45,9.07,16.02,9.86,15.74,1.1-.39.12-15.76-10.16-22.62-4.29-2.87-9.67-3.89-10.16-2.95Z"/>
    <path class="st3" d="M-985.86-.04c.42.56-2.68,2.68-5.68,7.17-4.9,7.34-4.69,13.78-5.43,13.69-.89-.11-2.57-9.67,2.61-15.97,3.12-3.79,8.01-5.53,8.5-4.89Z"/>
    <path class="st3" d="M-912.92-9.37c.42.56-2.68,2.68-5.68,7.17-4.9,7.34-4.69,13.78-5.43,13.69-.89-.11-2.57-9.67,2.61-15.97,3.12-3.79,8.01-5.53,8.5-4.89Z"/>
    <path class="st3" d="M-969.11,8.5c.7.07.14,3.79,1.39,9.04,2.04,8.58,6.91,12.81,6.34,13.29-.69.58-8.83-4.7-9.93-12.78-.66-4.87,1.4-9.63,2.2-9.55Z"/>
    <path class="st3" d="M-955.98,8.67c.3.63-3.17,2.08-7.01,5.87-6.28,6.19-7.38,12.55-8.08,12.3-.85-.29-.56-9.99,5.79-15.11,3.82-3.08,8.96-3.79,9.31-3.07Z"/>
    <path class="st3" d="M-988.61,5.52c.65-.5,4.1,2.25,10.66,4.53,10.72,3.73,19.21,2.55,19.24,3.3.03.9-12.3,4-21.69-.17-5.66-2.51-8.95-7.08-8.2-7.66Z"/>
    <path class="st3" d="M-933.23-16.78c.61.35-1.4,3.52-2.38,8.83-1.59,8.68,1.16,14.51.44,14.72-.86.25-6.19-7.86-3.93-15.69,1.36-4.72,5.16-8.25,5.86-7.86Z"/>
    <path class="st3" d="M-961.77-.65c.25-.79,4.65-.51,11.33-2.4,10.92-3.09,17.2-8.94,17.65-8.34.54.72-7.78,10.33-17.86,12.31-6.08,1.19-11.4-.66-11.11-1.57Z"/>
    <path class="st3" d="M-977.49-4.65c.92.16-.46,3.78.32,9.14,1.27,8.77,7.02,13.58,6.18,13.98-1.01.49-10.96-5.77-11.04-13.93-.05-4.91,3.49-9.38,4.54-9.2Z"/>
  </g>
  <ellipse class="st1" cx="-961.78" cy="-3.11" rx="59.87" ry="19.9"/>
  <g>
    <text class="st8" transform="translate(-210.34 105.91)"><tspan x="0" y="0">soft</tspan></text>
    <text class="st8" transform="translate(-123.91 144.58)"><tspan x="0" y="0">horizon</tspan></text>
    <rect class="st0" x="-219.51" y="88.11" width="142.74" height="66.56"/>
    <rect class="st4" x="-219.51" y="154.67" width="142.74" height="23.45"/>
  </g>
  <rect class="st0" x=".12" y=".12" width="148.38" height="126.3"/>
  <g>
    <path class="st2" d="M133.85,53.45c0,28.42-26.65,51.47-59.54,51.47S14.78,81.87,14.78,53.45h119.06Z"/>
    <rect class="st12" x="14.78" y="51.92" width="119.06" height="3.82"/>
    <g>
      <path class="st2" d="M33.84,45.31c-.53,1,4.85,3.66,10.47,9.84,7.7,8.45,9.07,16.02,9.86,15.74,1.1-.39.12-15.76-10.16-22.62-4.29-2.87-9.67-3.89-10.16-2.95Z"/>
      <path class="st2" d="M50.19,56.9c.42.56-2.68,2.68-5.68,7.17-4.9,7.34-4.69,13.78-5.43,13.69-.89-.11-2.57-9.67,2.61-15.97,3.12-3.79,8.01-5.53,8.5-4.89Z"/>
      <path class="st2" d="M123.13,47.57c.42.56-2.68,2.68-5.68,7.17-4.9,7.34-4.69,13.78-5.43,13.69-.89-.11-2.57-9.67,2.61-15.97,3.12-3.79,8.01-5.53,8.5-4.89Z"/>
      <path class="st2" d="M66.94,65.44c.7.07.14,3.79,1.39,9.04,2.04,8.58,6.91,12.81,6.34,13.29-.69.58-8.83-4.7-9.93-12.78-.66-4.87,1.4-9.63,2.2-9.55Z"/>
      <path class="st2" d="M80.07,65.62c.3.63-3.17,2.08-7.01,5.87-6.28,6.19-7.38,12.55-8.08,12.3-.85-.29-.56-9.99,5.79-15.11,3.82-3.08,8.96-3.79,9.31-3.07Z"/>
      <path class="st2" d="M47.44,62.46c.65-.5,4.1,2.25,10.66,4.53,10.72,3.73,19.21,2.55,19.24,3.3.03.9-12.3,4-21.69-.17-5.66-2.51-8.95-7.08-8.2-7.66Z"/>
      <path class="st2" d="M102.82,40.16c.61.35-1.4,3.52-2.38,8.83-1.59,8.68,1.16,14.51.44,14.72-.86.25-6.19-7.86-3.93-15.69,1.36-4.72,5.16-8.25,5.86-7.86Z"/>
      <path class="st2" d="M74.28,56.3c.25-.79,4.65-.51,11.33-2.4,10.92-3.09,17.2-8.94,17.65-8.34.54.72-7.78,10.33-17.86,12.31-6.08,1.19-11.4-.66-11.11-1.57Z"/>
      <path class="st2" d="M58.56,52.29c.92.16-.46,3.78.32,9.14,1.27,8.77,7.02,13.58,6.18,13.98-1.01.49-10.96-5.77-11.04-13.93-.05-4.91,3.49-9.38,4.54-9.2Z"/>
    </g>
    <ellipse class="st0" cx="74.32" cy="53.63" rx="59.87" ry="19.9"/>
  </g>
</svg>